<svg width="100%" viewBox="0 0 1600 1120" role="img" xmlns="http://www.w3.org/2000/svg">
  <title>Conceptual ARC-AGI rule-learning architecture</title>
  <desc>
    Conceptual architecture for an agent that learns game mechanics from PuzzleScript or ARC-AGI-3.
    The diagram centers the perceive-act loop, transition history, reasoning over rules, subgoal planning,
    active task context, and a persistent knowledge store.
  </desc>

  <defs>
    <marker id="arrow" viewBox="0 0 10 10" refX="8.5" refY="5" markerWidth="8" markerHeight="8" orient="auto">
      <path d="M 1 1 L 9 5 L 1 9 z" fill="context-stroke" />
    </marker>

    <filter id="shadow" x="-4%" y="-8%" width="108%" height="116%">
      <feDropShadow dx="0" dy="8" stdDeviation="8" flood-color="#111827" flood-opacity="0.08" />
    </filter>

    <style>
      .page {
        fill: #f8fafc;
      }

      .title {
        fill: #0f172a;
        font: 760 34px Inter, ui-sans-serif, system-ui, -apple-system, BlinkMacSystemFont, "Segoe UI", sans-serif;
      }

      .subtitle {
        fill: #475569;
        font: 400 16px Inter, ui-sans-serif, system-ui, -apple-system, BlinkMacSystemFont, "Segoe UI", sans-serif;
      }

      .panel-title {
        fill: #111827;
        font: 750 21px Inter, ui-sans-serif, system-ui, -apple-system, BlinkMacSystemFont, "Segoe UI", sans-serif;
      }

      .box-title {
        fill: #111827;
        font: 750 18px Inter, ui-sans-serif, system-ui, -apple-system, BlinkMacSystemFont, "Segoe UI", sans-serif;
      }

      .box-text {
        fill: #334155;
        font: 400 14px Inter, ui-sans-serif, system-ui, -apple-system, BlinkMacSystemFont, "Segoe UI", sans-serif;
      }

      .small {
        fill: #475569;
        font: 500 12px Inter, ui-sans-serif, system-ui, -apple-system, BlinkMacSystemFont, "Segoe UI", sans-serif;
      }

      .label {
        fill: #1f2937;
        font: 700 13px Inter, ui-sans-serif, system-ui, -apple-system, BlinkMacSystemFont, "Segoe UI", sans-serif;
      }

      .panel {
        filter: url(#shadow);
        stroke-width: 1.6;
      }

      .env {
        fill: #eef6ff;
        stroke: #7bb8ee;
      }

      .agent {
        fill: #f0fdf4;
        stroke: #6ee7a8;
      }

      .memory-panel {
        fill: #fff7ed;
        stroke: #fdba74;
      }

      .box {
        fill: #ffffff;
        stroke: rgba(71, 85, 105, 0.30);
        stroke-width: 1.2;
      }

      .transition {
        fill: #fffbeb;
        stroke: #fbbf24;
      }

      .reasoning {
        fill: #eef2ff;
        stroke: #a5b4fc;
      }

      .subgoal {
        fill: #fdf2f8;
        stroke: #f9a8d4;
      }

      .context {
        fill: #fff1f2;
        stroke: #fda4af;
      }

      .memory-box {
        fill: #fff7ed;
        stroke: #fb923c;
      }

      .io {
        fill: #f8fafc;
        stroke: #94a3b8;
      }

      .pill {
        fill: #ffffff;
        stroke: rgba(71, 85, 105, 0.28);
        stroke-width: 1.1;
      }

      .pill-text {
        fill: #1e293b;
        font: 650 13px Inter, ui-sans-serif, system-ui, -apple-system, BlinkMacSystemFont, "Segoe UI", sans-serif;
      }

      .arrow {
        fill: none;
        stroke-width: 2.6;
        stroke-linecap: round;
        stroke-linejoin: round;
        marker-end: url(#arrow);
      }

      .data {
        color: #2563eb;
        stroke: #2563eb;
      }

      .control {
        color: #7c3aed;
        stroke: #7c3aed;
      }

      .learn {
        color: #15803d;
        stroke: #15803d;
      }

      .memory {
        color: #c05621;
        stroke: #c05621;
      }

      .weak {
        color: #64748b;
        stroke: #64748b;
        stroke-dasharray: 8 6;
      }
    </style>
  </defs>

  <rect class="page" x="0" y="0" width="1600" height="1120" />

  <text class="title" x="800" y="52" text-anchor="middle">ARC-AGI Rule-Learning Architecture</text>
  <text class="subtitle" x="800" y="82" text-anchor="middle">
    Conceptual target: perceive transitions, reason over evidence, plan useful probes, act, and accumulate reusable knowledge.
  </text>

  <!-- Environment -->
  <rect class="panel env" x="1015" y="120" width="275" height="108" rx="18" />
  <text class="panel-title" x="1152" y="154" text-anchor="middle">PZ / ARC</text>
  <text class="box-text" x="1152" y="182" text-anchor="middle">PuzzleScript or ARC-AGI-3</text>
  <text class="box-text" x="1152" y="204" text-anchor="middle">reset / step / observe surface</text>

  <rect class="box io" x="820" y="265" width="130" height="56" rx="12" />
  <text class="box-title" x="885" y="299" text-anchor="middle">Perceive</text>

  <rect class="box io" x="1275" y="360" width="118" height="56" rx="12" />
  <text class="box-title" x="1334" y="394" text-anchor="middle">Act</text>

  <!-- Persistent knowledge store -->
  <rect class="panel memory-panel" x="95" y="210" width="410" height="470" rx="20" />
  <text class="panel-title" x="300" y="247" text-anchor="middle">Persistent knowledge store</text>
  <text class="small" x="300" y="274" text-anchor="middle">Longer-lived memory across games, levels, and runs</text>

  <rect class="box memory-box" x="140" y="320" width="320" height="68" rx="12" />
  <text class="box-title" x="300" y="345" text-anchor="middle">Rule library</text>
  <text class="box-text" x="300" y="368" text-anchor="middle">validated mechanics and known rule schemas</text>

  <rect class="box memory-box" x="140" y="420" width="320" height="68" rx="12" />
  <text class="box-title" x="300" y="445" text-anchor="middle">Abstractions</text>
  <text class="box-text" x="300" y="468" text-anchor="middle">transferable concepts and compressed rules</text>

  <rect class="box memory-box" x="140" y="520" width="320" height="82" rx="12" />
  <text class="box-title" x="300" y="546" text-anchor="middle">Subgoals and goals</text>
  <text class="box-text" x="300" y="569" text-anchor="middle">goal templates, solved patterns,</text>
  <text class="box-text" x="300" y="591" text-anchor="middle">useful probes and strategies</text>

  <!-- Agent boundary -->
  <rect class="panel agent" x="560" y="345" width="895" height="630" rx="24" />
  <text class="panel-title" x="1008" y="383" text-anchor="middle">Learning agent</text>
  <text class="small" x="1008" y="409" text-anchor="middle">The reasoning mechanism may be an LLM, search, heuristics, learned dynamics, or a mix.</text>

  <!-- Transition history -->
  <rect class="box transition" x="620" y="455" width="280" height="140" rx="16" />
  <text class="box-title" x="760" y="486" text-anchor="middle">Transition history</text>
  <text class="box-text" x="760" y="514" text-anchor="middle">state before</text>
  <text class="box-text" x="760" y="536" text-anchor="middle">action taken</text>
  <text class="box-text" x="760" y="558" text-anchor="middle">state after</text>
  <text class="box-text" x="760" y="580" text-anchor="middle">reward / win / failure signal</text>

  <!-- Reasoning -->
  <rect class="box reasoning" x="960" y="455" width="305" height="230" rx="16" />
  <text class="box-title" x="1112" y="486" text-anchor="middle">Reasoning</text>

  <rect class="pill" x="1000" y="518" width="225" height="48" rx="12" />
  <text class="pill-text" x="1112" y="548" text-anchor="middle">Rule induction</text>

  <rect class="pill" x="1000" y="582" width="225" height="48" rx="12" />
  <text class="pill-text" x="1112" y="612" text-anchor="middle">Deduce -> compress</text>

  <rect class="pill" x="1000" y="646" width="225" height="48" rx="12" />
  <text class="pill-text" x="1112" y="676" text-anchor="middle">Refine and verify</text>

  <!-- Subgoal planning -->
  <rect class="box subgoal" x="1035" y="735" width="340" height="195" rx="16" />
  <text class="box-title" x="1205" y="766" text-anchor="middle">Subgoal planning</text>
  <text class="box-text" x="1205" y="797" text-anchor="middle">plan to goal or subgoal</text>
  <text class="box-text" x="1205" y="822" text-anchor="middle">detect failure / repeated no-change</text>
  <text class="box-text" x="1205" y="847" text-anchor="middle">identify rule gaps</text>
  <text class="box-text" x="1205" y="872" text-anchor="middle">form hypothesis</text>
  <text class="box-text" x="1205" y="897" text-anchor="middle">choose next probe or action plan</text>

  <!-- Active task context -->
  <rect class="box context" x="610" y="760" width="360" height="170" rx="16" />
  <text class="box-title" x="790" y="792" text-anchor="middle">Active task context</text>
  <text class="box-text" x="790" y="824" text-anchor="middle">known environment rules</text>
  <text class="box-text" x="790" y="849" text-anchor="middle">current inferred legend</text>
  <text class="box-text" x="790" y="874" text-anchor="middle">current hypotheses</text>
  <text class="box-text" x="790" y="899" text-anchor="middle">current goal / subgoal</text>

  <!-- Internal flow arrows -->
  <path class="arrow data" d="M 1152 230 C 1095 260 1018 292 955 293" />
  <text class="label" x="1035" y="282">state</text>

  <path class="arrow data" d="M 885 321 L 885 420 L 805 420 L 805 450" />
  <text class="label" x="800" y="442">observed frame</text>

  <path class="arrow learn" d="M 900 525 L 955 525" />
  <text class="label" x="928" y="508" text-anchor="middle">evidence</text>

  <path class="arrow learn" d="M 1112 685 L 1112 730" />
  <text class="label" x="1136" y="713">refined beliefs</text>

  <path class="arrow control" d="M 970 845 L 1030 845" />
  <text class="label" x="1000" y="826" text-anchor="middle">context</text>

  <path class="arrow control" d="M 1334 735 L 1334 421" />
  <text class="label" x="1358" y="585" transform="rotate(-90 1358 585)">candidate action</text>

  <path class="arrow control" d="M 1275 388 C 1210 326 1182 265 1162 230" />
  <text class="label" x="1230" y="302">action</text>

  <path class="arrow learn" d="M 1050 685 C 990 730 910 752 875 760" />
  <text class="label" x="955" y="730">validated updates</text>

  <!-- Memory links -->
  <path class="arrow memory" d="M 505 353 C 555 365 580 405 620 470" />
  <text class="label" x="552" y="392">retrieve prior rules</text>

  <path class="arrow memory" d="M 460 588 C 520 710 555 815 610 842" />
  <text class="label" x="520" y="778" text-anchor="end">load relevant goals</text>

  <path class="arrow memory" d="M 960 632 C 800 705 640 700 505 455" />
  <text class="label" x="675" y="708">save validated rules / abstractions</text>

  <path class="arrow memory" d="M 1035 890 C 780 1040 410 975 300 607" />
  <text class="label" x="610" y="1015">save useful subgoals and plans</text>

  <!-- Main loop guide -->
  <path class="arrow weak" d="M 1375 833 C 1498 720 1515 300 1290 178" />
  <text class="label" x="1480" y="510" transform="rotate(-78 1480 510)">act -> observe -> learn -> plan -> act</text>

  <!-- Legend -->
  <rect class="box" x="1045" y="990" width="390" height="104" rx="14" />
  <text class="box-title" x="1240" y="1019" text-anchor="middle">Arrow meaning</text>
  <line class="arrow data" x1="1082" y1="1046" x2="1138" y2="1046" />
  <text class="small" x="1152" y="1050">observations / transition data</text>
  <line class="arrow control" x1="1082" y1="1074" x2="1138" y2="1074" />
  <text class="small" x="1152" y="1078">actions / planning control</text>
  <line class="arrow learn" x1="1270" y1="1046" x2="1326" y2="1046" />
  <text class="small" x="1340" y="1050">learning products</text>
  <line class="arrow memory" x1="1270" y1="1074" x2="1326" y2="1074" />
  <text class="small" x="1340" y="1078">memory read/write</text>
</svg>
